# xmcd
#
# Track frame offsets:
#	150
#	16908
#	30568
#	51246
#	57379
#	71746
#	87093
#	109348
#	129703
#	147411
#	169772
#	183009
#
# Disc length: 2671 seconds
#
# Revision: 2
# Processed by: cddbd v1.5.2PL0 Copyright (c) Steve Scherf et al.
# Submitted via: EasyCDDAExtractor 11.1.0.1
#
DISCID=a60a6d0c
DTITLE=Keith Urban
DYEAR=1999
DGENRE=Country
TTITLE0=It's A Love Thing
TTITLE1=Where The Blacktop Ends
TTITLE2=But For The Grace Of God
TTITLE3=Your Everything
TTITLE4=I Wanna Be Your Man(Forever)
TTITLE5=A Little Lick Of Our Own
TTITLE6=You're The Only One
TTITLE7=If You Wanna Stay
TTITLE8=Don't Shut Me Out
TTITLE9=Out On My Own
TTITLE10=Rollercoaster
TTITLE11=Thought You Knew
EXTD=
EXTT0=
EXTT1=
EXTT2=
EXTT3=
EXTT4=
EXTT5=
EXTT6=
EXTT7=
EXTT8=
EXTT9=
EXTT10=
EXTT11=
PLAYORDER=
